<?xml version="1.0" standalone="no"?>
<!DOCTYPE svg PUBLIC "-//W3C//DTD SVG 20010904//EN"
 "http://www.w3.org/TR/2001/REC-SVG-20010904/DTD/svg10.dtd">
<svg version="1.0" xmlns="http://www.w3.org/2000/svg"
 width="200.000000pt" height="200.000000pt" viewBox="0 0 200.000000 200.000000"
 preserveAspectRatio="xMidYMid meet">
<metadata>
Created by potrace 1.14, written by Peter Selinger 2001-2017
</metadata>
<g transform="translate(0.000000,200.000000) scale(0.100000,-0.100000)"
fill="#000000" stroke="none">
<path d="M814 1267 c-2 -7 -3 -69 -2 -138 l3 -124 78 -3 c74 -3 77 -4 77 -27
0 -17 -6 -25 -17 -25 -9 0 -13 -3 -10 -7 10 -9 117 -11 123 -1 3 4 0 8 -5 8
-6 0 -11 11 -11 25 0 23 3 24 78 27 l77 3 0 135 0 135 -193 3 c-153 2 -194 0
-198 -11z m381 -127 l0 -125 -185 0 -185 0 -3 114 c-1 63 0 121 2 128 4 11 43
13 188 11 l183 -3 0 -125z m-159 -167 c1 -19 -4 -23 -27 -23 -24 0 -29 4 -29
26 0 22 4 25 28 22 20 -2 27 -9 28 -25z"/>
<path d="M1003 1144 c-17 -41 -28 -74 -24 -74 9 0 66 138 60 144 -2 2 -18 -29
-36 -70z"/>
<path d="M898 1169 c-21 -11 -38 -23 -38 -27 0 -10 81 -54 88 -48 2 3 -12 13
-32 22 -20 10 -36 21 -36 25 0 3 14 12 30 19 29 12 50 30 33 30 -4 -1 -25 -10
-45 -21z"/>
<path d="M1074 1181 c3 -4 19 -14 36 -21 16 -7 30 -16 30 -19 0 -4 -16 -15
-36 -25 -20 -9 -34 -19 -31 -22 6 -7 87 36 87 46 0 7 -73 50 -84 50 -4 0 -5
-4 -2 -9z"/>
<path d="M710 880 c0 -5 4 -10 8 -10 5 0 8 -34 8 -75 -1 -75 10 -104 16 -42 2
24 8 32 23 32 14 0 20 -7 21 -22 2 -41 4 -43 22 -42 10 0 12 3 5 6 -7 2 -13
17 -13 31 0 39 -14 55 -39 47 -19 -6 -21 -3 -21 39 0 34 -4 46 -15 46 -8 0
-15 -4 -15 -10z"/>
<path d="M874 874 c3 -9 6 -47 6 -85 0 -55 3 -69 15 -69 12 0 13 5 7 18 -5 9
-8 42 -7 72 2 61 -2 80 -17 80 -6 0 -7 -7 -4 -16z"/>
<path d="M1260 880 c0 -5 4 -10 8 -10 4 0 8 -16 8 -35 0 -29 -3 -34 -18 -29
-27 8 -59 -30 -49 -58 7 -19 16 -23 57 -24 27 -1 43 0 37 3 -9 3 -13 30 -13
84 0 64 -3 79 -15 79 -8 0 -15 -4 -15 -10z m16 -112 c3 -22 -21 -42 -41 -34
-15 6 -21 37 -8 50 13 12 46 1 49 -16z"/>
<path d="M1370 878 c0 -4 4 -8 9 -8 4 0 7 -15 6 -32 -1 -20 -6 -32 -14 -30
-28 6 -52 -19 -49 -51 3 -31 4 -32 53 -33 28 -1 44 0 38 3 -9 3 -13 29 -13 82
0 62 -3 78 -15 78 -8 0 -15 -4 -15 -9z m16 -108 c0 -20 -15 -40 -32 -40 -15 0
-28 35 -19 50 10 16 50 8 51 -10z"/>
<path d="M518 849 c-33 -19 -22 -47 23 -60 65 -20 63 -58 -3 -59 -20 0 -28 5
-28 18 0 14 -2 15 -9 2 -14 -22 -4 -30 39 -30 73 0 89 63 20 77 -40 8 -57 29
-33 41 23 12 54 7 64 -10 7 -10 9 -9 9 3 0 28 -48 38 -82 18z"/>
<path d="M970 849 c0 -4 4 -10 8 -13 5 -3 8 -30 7 -61 0 -30 3 -55 7 -55 4 0
8 11 8 25 0 21 5 25 30 25 19 0 30 -5 30 -14 0 -7 7 -19 15 -26 18 -15 19 -7
4 22 -8 14 -8 23 0 31 14 14 14 54 0 63 -16 10 -109 13 -109 3z m104 -24 c7
-20 -22 -47 -48 -43 -15 2 -22 11 -24 31 -3 25 -1 27 31 27 21 0 37 -6 41 -15z"/>
<path d="M835 840 c3 -5 8 -10 11 -10 2 0 4 5 4 10 0 6 -5 10 -11 10 -5 0 -7
-4 -4 -10z"/>
<path d="M635 797 c-2 -7 -6 -25 -7 -42 -3 -29 -1 -30 40 -32 31 -1 40 1 35
10 -4 7 -7 19 -5 27 1 8 -2 21 -6 28 -12 17 -52 24 -57 9z m45 -17 c0 -5 -9
-10 -20 -10 -11 0 -20 5 -20 10 0 6 9 10 20 10 11 0 20 -4 20 -10z m-6 -29 c3
-5 -1 -12 -10 -15 -22 -9 -24 -8 -24 9 0 16 25 21 34 6z"/>
<path d="M825 800 c-3 -5 -1 -10 6 -10 7 0 9 -10 7 -24 -3 -14 -1 -31 3 -38 6
-8 9 3 9 29 0 41 -13 63 -25 43z"/>
<path d="M1126 794 c-32 -32 -10 -79 35 -72 12 2 25 10 27 18 5 13 3 13 -11 1
-18 -14 -47 -9 -47 9 0 5 14 10 30 10 35 0 41 23 11 40 -25 13 -27 13 -45 -6z
m49 -14 c4 -6 -5 -10 -19 -10 -14 0 -26 5 -26 10 0 6 9 10 19 10 11 0 23 -4
26 -10z"/>
<path d="M1420 805 c0 -3 9 -24 20 -46 l21 -39 -26 -26 c-20 -20 -22 -25 -8
-22 19 3 91 128 75 128 -5 0 -16 -14 -24 -31 l-15 -30 -13 31 c-12 28 -30 50
-30 35z"/>
</g>
</svg>
